<svg   width="15" height="15" viewBox="0 0 86 86" fill="none" xmlns="http://www.w3.org/2000/svg">
<path d="M84.884 0.912572C85.3307 1.35967 85.6314 1.93173 85.7464 2.55325C85.8613 3.17477 85.7851 3.81653 85.5277 4.39382L50.1715 83.9438C49.9244 84.5002 49.5203 84.9723 49.0087 85.3021C48.4971 85.632 47.9002 85.8052 47.2915 85.8006C46.6828 85.7959 46.0887 85.6136 45.5822 85.276C45.0756 84.9383 44.6787 84.4601 44.4402 83.9001L31.684 54.1126L1.89024 41.3501C1.33226 41.1101 0.856329 40.7127 0.520636 40.2065C0.184943 39.7003 0.00404555 39.1072 6.70645e-05 38.4998C-0.00391142 37.8924 0.169202 37.2971 0.498235 36.7865C0.827268 36.276 1.29796 35.8724 1.85274 35.6251L81.4027 0.268823C81.9793 0.0128721 82.6197 -0.062617 83.24 0.0522822C83.8602 0.167181 84.4374 0.467089 84.884 0.912572ZM10.934 38.4251L35.2902 48.8626C36.0268 49.18 36.6131 49.7686 36.9277 50.5063L47.3652 74.8626L76.5152 9.27507L10.934 38.4251Z" fill="#F0F0F0"/>
</svg>
